<?xml version="1.0" standalone="no"?>
<!DOCTYPE svg PUBLIC "-//W3C//DTD SVG 20010904//EN"
 "http://www.w3.org/TR/2001/REC-SVG-20010904/DTD/svg10.dtd">
<svg version="1.0" xmlns="http://www.w3.org/2000/svg"
 width="694.000000pt" height="694.000000pt" viewBox="0 0 694.000000 694.000000"
 preserveAspectRatio="xMidYMid meet">

<g transform="translate(0.000000,694.000000) scale(0.100000,-0.100000)"
fill="#000000" stroke="none">
<path d="M2241 5603 c-14 -6 -226 -212 -471 -457 l-445 -446 0 -1655 c0 -1650
0 -1654 20 -1675 21 -20 25 -20 1680 -20 l1659 -1 458 458 458 458 0 1647 0
1647 -22 26 -23 26 -1644 2 c-1223 1 -1651 -1 -1670 -10z m2726 -500 c-256
-257 -359 -353 -377 -354 -14 -1 -522 -1 -1130 -1 l-1105 2 0 353 0 352 1482
0 1483 0 -353 -352z m473 -1249 l0 -1485 -352 3 -353 3 -3 1130 -2 1130 352
352 c194 194 354 353 355 353 2 0 3 -669 3 -1486z m-3241 1199 c1 -153 -2
-284 -7 -290 -6 -10 -80 -13 -295 -15 -158 -2 -287 -1 -287 2 0 7 574 580 581
580 4 0 7 -125 8 -277z m-6 -497 c3 -18 3 -528 0 -1132 l-4 -1099 -347 -347
c-190 -191 -347 -346 -349 -345 -1 2 -4 668 -5 1480 l-3 1476 351 0 351 0 6
-33z m2372 -1076 l0 -1105 -1100 0 -1100 0 -5 1100 c-3 605 -4 1103 -2 1108 2
4 499 6 1105 5 l1102 -3 0 -1105z m3 -1620 l2 -355 -1472 2 c-810 2 -1477 3
-1483 3 -5 0 148 157 340 350 l350 350 810 3 c445 1 954 2 1130 2 l320 0 3
-355z m743 354 c7 -4 -569 -584 -580 -584 -4 0 -6 564 -1 587 0 4 575 1 581
-3z"/>
</g>
</svg>
